{
  "extensionsUsed": [
    "KHR_materials_unlit"
  ],
  "asset": {
    "generator": "UniGLTF-1.27",
    "version": "2.0"
  },
  "buffers": [
    {
      "uri": "astronautA_data.bin",
      "byteLength": 17440
    }
  ],
  "bufferViews": [
    {
      "buffer": 0,
      "byteOffset": 0,
      "byteLength": 576,
      "target": 34962
    },
    {
      "buffer": 0,
      "byteOffset": 576,
      "byteLength": 576,
      "target": 34962
    },
    {
      "buffer": 0,
      "byteOffset": 1152,
      "byteLength": 384,
      "target": 34962
    },
    {
      "buffer": 0,
      "byteOffset": 1536,
      "byteLength": 168,
      "target": 34963
    },
    {
      "buffer": 0,
      "byteOffset": 1704,
      "byteLength": 48,
      "target": 34963
    },
    {
      "buffer": 0,
      "byteOffset": 1752,
      "byteLength": 120,
      "target": 34963
    },
    {
      "buffer": 0,
      "byteOffset": 1872,
      "byteLength": 576,
      "target": 34962
    },
    {
      "buffer": 0,
      "byteOffset": 2448,
      "byteLength": 576,
      "target": 34962
    },
    {
      "buffer": 0,
      "byteOffset": 3024,
      "byteLength": 384,
      "target": 34962
    },
    {
      "buffer": 0,
      "byteOffset": 3408,
      "byteLength": 168,
      "target": 34963
    },
    {
      "buffer": 0,
      "byteOffset": 3576,
      "byteLength": 120,
      "target": 34963
    },
    {
      "buffer": 0,
      "byteOffset": 3696,
      "byteLength": 48,
      "target": 34963
    },
    {
      "buffer": 0,
      "byteOffset": 3744,
      "byteLength": 1272,
      "target": 34962
    },
    {
      "buffer": 0,
      "byteOffset": 5016,
      "byteLength": 1272,
      "target": 34962
    },
    {
      "buffer": 0,
      "byteOffset": 6288,
      "byteLength": 848,
      "target": 34962
    },
    {
      "buffer": 0,
      "byteOffset": 7136,
      "byteLength": 336,
      "target": 34963
    },
    {
      "buffer": 0,
      "byteOffset": 7472,
      "byteLength": 264,
      "target": 34963
    },
    {
      "buffer": 0,
      "byteOffset": 7736,
      "byteLength": 264,
      "target": 34963
    },
    {
      "buffer": 0,
      "byteOffset": 8000,
      "byteLength": 1488,
      "target": 34962
    },
    {
      "buffer": 0,
      "byteOffset": 9488,
      "byteLength": 1488,
      "target": 34962
    },
    {
      "buffer": 0,
      "byteOffset": 10976,
      "byteLength": 992,
      "target": 34962
    },
    {
      "buffer": 0,
      "byteOffset": 11968,
      "byteLength": 768,
      "target": 34963
    },
    {
      "buffer": 0,
      "byteOffset": 12736,
      "byteLength": 408,
      "target": 34963
    },
    {
      "buffer": 0,
      "byteOffset": 13144,
      "byteLength": 72,
      "target": 34963
    },
    {
      "buffer": 0,
      "byteOffset": 13216,
      "byteLength": 648,
      "target": 34962
    },
    {
      "buffer": 0,
      "byteOffset": 13864,
      "byteLength": 648,
      "target": 34962
    },
    {
      "buffer": 0,
      "byteOffset": 14512,
      "byteLength": 432,
      "target": 34962
    },
    {
      "buffer": 0,
      "byteOffset": 14944,
      "byteLength": 120,
      "target": 34963
    },
    {
      "buffer": 0,
      "byteOffset": 15064,
      "byteLength": 240,
      "target": 34963
    },
    {
      "buffer": 0,
      "byteOffset": 15304,
      "byteLength": 24,
      "target": 34963
    },
    {
      "buffer": 0,
      "byteOffset": 15328,
      "byteLength": 648,
      "target": 34962
    },
    {
      "buffer": 0,
      "byteOffset": 15976,
      "byteLength": 648,
      "target": 34962
    },
    {
      "buffer": 0,
      "byteOffset": 16624,
      "byteLength": 432,
      "target": 34962
    },
    {
      "buffer": 0,
      "byteOffset": 17056,
      "byteLength": 240,
      "target": 34963
    },
    {
      "buffer": 0,
      "byteOffset": 17296,
      "byteLength": 120,
      "target": 34963
    },
    {
      "buffer": 0,
      "byteOffset": 17416,
      "byteLength": 24,
      "target": 34963
    }
  ],
  "accessors": [
    {
      "bufferView": 0,
      "byteOffset": 0,
      "type": "VEC3",
      "componentType": 5126,
      "count": 48,
      "max": [
        3.914579e-10,
        2.70716786e-16,
        0.065
      ],
      "min": [
        -0.13,
        -0.3917962,
        -0.117539212
      ],
      "normalized": false
    },
    {
      "bufferView": 1,
      "byteOffset": 0,
      "type": "VEC3",
      "componentType": 5126,
      "count": 48,
      "normalized": false
    },
    {
      "bufferView": 2,
      "byteOffset": 0,
      "type": "VEC2",
      "componentType": 5126,
      "count": 48,
      "normalized": false
    },
    {
      "bufferView": 3,
      "byteOffset": 0,
      "type": "SCALAR",
      "componentType": 5125,
      "count": 42,
      "normalized": false
    },
    {
      "bufferView": 4,
      "byteOffset": 0,
      "type": "SCALAR",
      "componentType": 5125,
      "count": 12,
      "normalized": false
    },
    {
      "bufferView": 5,
      "byteOffset": 0,
      "type": "SCALAR",
      "componentType": 5125,
      "count": 30,
      "normalized": false
    },
    {
      "bufferView": 6,
      "byteOffset": 0,
      "type": "VEC3",
      "componentType": 5126,
      "count": 48,
      "max": [
        0.111592,
        1.80477853e-16,
        0.055796
      ],
      "min": [
        -3.36009331e-10,
        -0.336317837,
        -0.100895666
      ],
      "normalized": false
    },
    {
      "bufferView": 7,
      "byteOffset": 0,
      "type": "VEC3",
      "componentType": 5126,
      "count": 48,
      "normalized": false
    },
    {
      "bufferView": 8,
      "byteOffset": 0,
      "type": "VEC2",
      "componentType": 5126,
      "count": 48,
      "normalized": false
    },
    {
      "bufferView": 9,
      "byteOffset": 0,
      "type": "SCALAR",
      "componentType": 5125,
      "count": 42,
      "normalized": false
    },
    {
      "bufferView": 10,
      "byteOffset": 0,
      "type": "SCALAR",
      "componentType": 5125,
      "count": 30,
      "normalized": false
    },
    {
      "bufferView": 11,
      "byteOffset": 0,
      "type": "SCALAR",
      "componentType": 5125,
      "count": 12,
      "normalized": false
    },
    {
      "bufferView": 12,
      "byteOffset": 0,
      "type": "VEC3",
      "componentType": 5126,
      "count": 106,
      "max": [
        0.13,
        0.31,
        0.2
      ],
      "min": [
        -0.13,
        0,
        -0.13
      ],
      "normalized": false
    },
    {
      "bufferView": 13,
      "byteOffset": 0,
      "type": "VEC3",
      "componentType": 5126,
      "count": 106,
      "normalized": false
    },
    {
      "bufferView": 14,
      "byteOffset": 0,
      "type": "VEC2",
      "componentType": 5126,
      "count": 106,
      "normalized": false
    },
    {
      "bufferView": 15,
      "byteOffset": 0,
      "type": "SCALAR",
      "componentType": 5125,
      "count": 84,
      "normalized": false
    },
    {
      "bufferView": 16,
      "byteOffset": 0,
      "type": "SCALAR",
      "componentType": 5125,
      "count": 66,
      "normalized": false
    },
    {
      "bufferView": 17,
      "byteOffset": 0,
      "type": "SCALAR",
      "componentType": 5125,
      "count": 66,
      "normalized": false
    },
    {
      "bufferView": 18,
      "byteOffset": 0,
      "type": "VEC3",
      "componentType": 5126,
      "count": 124,
      "max": [
        0.7307692,
        1.19230759,
        0.5
      ],
      "min": [
        -0.7307692,
        0,
        -0.5
      ],
      "normalized": false
    },
    {
      "bufferView": 19,
      "byteOffset": 0,
      "type": "VEC3",
      "componentType": 5126,
      "count": 124,
      "normalized": false
    },
    {
      "bufferView": 20,
      "byteOffset": 0,
      "type": "VEC2",
      "componentType": 5126,
      "count": 124,
      "normalized": false
    },
    {
      "bufferView": 21,
      "byteOffset": 0,
      "type": "SCALAR",
      "componentType": 5125,
      "count": 192,
      "normalized": false
    },
    {
      "bufferView": 22,
      "byteOffset": 0,
      "type": "SCALAR",
      "componentType": 5125,
      "count": 102,
      "normalized": false
    },
    {
      "bufferView": 23,
      "byteOffset": 0,
      "type": "SCALAR",
      "componentType": 5125,
      "count": 18,
      "normalized": false
    },
    {
      "bufferView": 24,
      "byteOffset": 0,
      "type": "VEC3",
      "componentType": 5126,
      "count": 54,
      "max": [
        0.111592,
        0,
        0.07579599
      ],
      "min": [
        0,
        -0.223184,
        -0.1
      ],
      "normalized": false
    },
    {
      "bufferView": 25,
      "byteOffset": 0,
      "type": "VEC3",
      "componentType": 5126,
      "count": 54,
      "normalized": false
    },
    {
      "bufferView": 26,
      "byteOffset": 0,
      "type": "VEC2",
      "componentType": 5126,
      "count": 54,
      "normalized": false
    },
    {
      "bufferView": 27,
      "byteOffset": 0,
      "type": "SCALAR",
      "componentType": 5125,
      "count": 30,
      "normalized": false
    },
    {
      "bufferView": 28,
      "byteOffset": 0,
      "type": "SCALAR",
      "componentType": 5125,
      "count": 60,
      "normalized": false
    },
    {
      "bufferView": 29,
      "byteOffset": 0,
      "type": "SCALAR",
      "componentType": 5125,
      "count": 6,
      "normalized": false
    },
    {
      "bufferView": 30,
      "byteOffset": 0,
      "type": "VEC3",
      "componentType": 5126,
      "count": 54,
      "max": [
        2.88764564e-15,
        1.35358393e-16,
        0.0882991552
      ],
      "min": [
        -0.13,
        -0.26,
        -0.11649581
      ],
      "normalized": false
    },
    {
      "bufferView": 31,
      "byteOffset": 0,
      "type": "VEC3",
      "componentType": 5126,
      "count": 54,
      "normalized": false
    },
    {
      "bufferView": 32,
      "byteOffset": 0,
      "type": "VEC2",
      "componentType": 5126,
      "count": 54,
      "normalized": false
    },
    {
      "bufferView": 33,
      "byteOffset": 0,
      "type": "SCALAR",
      "componentType": 5125,
      "count": 60,
      "normalized": false
    },
    {
      "bufferView": 34,
      "byteOffset": 0,
      "type": "SCALAR",
      "componentType": 5125,
      "count": 30,
      "normalized": false
    },
    {
      "bufferView": 35,
      "byteOffset": 0,
      "type": "SCALAR",
      "componentType": 5125,
      "count": 6,
      "normalized": false
    }
  ],
  "materials": [
    {
      "name": "dark",
      "pbrMetallicRoughness": {
        "baseColorFactor": [
          0.274509817,
          0.298039228,
          0.34117648,
          1
        ],
        "metallicFactor": 1,
        "roughnessFactor": 1
      },
      "doubleSided": false,
      "alphaMode": "OPAQUE"
    },
    {
      "name": "metal",
      "pbrMetallicRoughness": {
        "baseColorFactor": [
          0.843137264,
          0.870588243,
          0.9098039,
          1
        ],
        "metallicFactor": 1,
        "roughnessFactor": 1
      },
      "doubleSided": false,
      "alphaMode": "OPAQUE"
    },
    {
      "name": "metalRed",
      "pbrMetallicRoughness": {
        "baseColorFactor": [
          1,
          0.628524244,
          0.2028302,
          1
        ],
        "metallicFactor": 1,
        "roughnessFactor": 1
      },
      "doubleSided": false,
      "alphaMode": "OPAQUE"
    },
    {
      "name": "metalDark",
      "pbrMetallicRoughness": {
        "baseColorFactor": [
          0.6750623,
          0.7100219,
          0.7735849,
          1
        ],
        "metallicFactor": 1,
        "roughnessFactor": 1
      },
      "doubleSided": false,
      "alphaMode": "OPAQUE"
    },
    {
      "name": "skin",
      "pbrMetallicRoughness": {
        "baseColorFactor": [
          1,
          0.7647059,
          0.6117647,
          1
        ],
        "metallicFactor": 1,
        "roughnessFactor": 1
      },
      "doubleSided": false,
      "alphaMode": "OPAQUE"
    },
    {
      "name": "rock",
      "pbrMetallicRoughness": {
        "baseColorFactor": [
          0.9098039,
          0.5176471,
          0.3882353,
          1
        ],
        "metallicFactor": 1,
        "roughnessFactor": 1
      },
      "doubleSided": false,
      "alphaMode": "OPAQUE"
    },
    {
      "name": "rockDark",
      "pbrMetallicRoughness": {
        "baseColorFactor": [
          0.698039234,
          0.372549027,
          0.2627451,
          1
        ],
        "metallicFactor": 1,
        "roughnessFactor": 1
      },
      "doubleSided": false,
      "alphaMode": "OPAQUE"
    }
  ],
  "meshes": [
    {
      "name": "Mesh armLeft",
      "primitives": [
        {
          "mode": 4,
          "indices": 3,
          "attributes": {
            "POSITION": 0,
            "NORMAL": 1,
            "TEXCOORD_0": 2
          },
          "material": 0
        },
        {
          "mode": 4,
          "indices": 4,
          "attributes": {
            "POSITION": 0,
            "NORMAL": 1,
            "TEXCOORD_0": 2
          },
          "material": 1
        },
        {
          "mode": 4,
          "indices": 5,
          "attributes": {
            "POSITION": 0,
            "NORMAL": 1,
            "TEXCOORD_0": 2
          },
          "material": 2
        }
      ]
    },
    {
      "name": "Mesh armRight",
      "primitives": [
        {
          "mode": 4,
          "indices": 9,
          "attributes": {
            "POSITION": 6,
            "NORMAL": 7,
            "TEXCOORD_0": 8
          },
          "material": 0
        },
        {
          "mode": 4,
          "indices": 10,
          "attributes": {
            "POSITION": 6,
            "NORMAL": 7,
            "TEXCOORD_0": 8
          },
          "material": 2
        },
        {
          "mode": 4,
          "indices": 11,
          "attributes": {
            "POSITION": 6,
            "NORMAL": 7,
            "TEXCOORD_0": 8
          },
          "material": 1
        }
      ]
    },
    {
      "name": "Mesh body",
      "primitives": [
        {
          "mode": 4,
          "indices": 15,
          "attributes": {
            "POSITION": 12,
            "NORMAL": 13,
            "TEXCOORD_0": 14
          },
          "material": 3
        },
        {
          "mode": 4,
          "indices": 16,
          "attributes": {
            "POSITION": 12,
            "NORMAL": 13,
            "TEXCOORD_0": 14
          },
          "material": 1
        },
        {
          "mode": 4,
          "indices": 17,
          "attributes": {
            "POSITION": 12,
            "NORMAL": 13,
            "TEXCOORD_0": 14
          },
          "material": 2
        }
      ]
    },
    {
      "name": "Mesh head",
      "primitives": [
        {
          "mode": 4,
          "indices": 21,
          "attributes": {
            "POSITION": 18,
            "NORMAL": 19,
            "TEXCOORD_0": 20
          },
          "material": 4
        },
        {
          "mode": 4,
          "indices": 22,
          "attributes": {
            "POSITION": 18,
            "NORMAL": 19,
            "TEXCOORD_0": 20
          },
          "material": 5
        },
        {
          "mode": 4,
          "indices": 23,
          "attributes": {
            "POSITION": 18,
            "NORMAL": 19,
            "TEXCOORD_0": 20
          },
          "material": 6
        }
      ]
    },
    {
      "name": "Mesh legLeft",
      "primitives": [
        {
          "mode": 4,
          "indices": 27,
          "attributes": {
            "POSITION": 24,
            "NORMAL": 25,
            "TEXCOORD_0": 26
          },
          "material": 3
        },
        {
          "mode": 4,
          "indices": 28,
          "attributes": {
            "POSITION": 24,
            "NORMAL": 25,
            "TEXCOORD_0": 26
          },
          "material": 0
        },
        {
          "mode": 4,
          "indices": 29,
          "attributes": {
            "POSITION": 24,
            "NORMAL": 25,
            "TEXCOORD_0": 26
          },
          "material": 1
        }
      ]
    },
    {
      "name": "Mesh legRight",
      "primitives": [
        {
          "mode": 4,
          "indices": 33,
          "attributes": {
            "POSITION": 30,
            "NORMAL": 31,
            "TEXCOORD_0": 32
          },
          "material": 0
        },
        {
          "mode": 4,
          "indices": 34,
          "attributes": {
            "POSITION": 30,
            "NORMAL": 31,
            "TEXCOORD_0": 32
          },
          "material": 3
        },
        {
          "mode": 4,
          "indices": 35,
          "attributes": {
            "POSITION": 30,
            "NORMAL": 31,
            "TEXCOORD_0": 32
          },
          "material": 1
        }
      ]
    }
  ],
  "nodes": [
    {
      "children": [
        1
      ],
      "name": "tmpParent",
      "translation": [
        0,
        0,
        0
      ],
      "rotation": [
        0,
        0,
        0,
        1
      ],
      "scale": [
        1,
        1,
        1
      ]
    },
    {
      "children": [
        2,
        3,
        4,
        5,
        6,
        7
      ],
      "name": "astronautA",
      "translation": [
        2,
        0,
        1.5
      ],
      "rotation": [
        0,
        0,
        0,
        1
      ],
      "scale": [
        1,
        1,
        1
      ]
    },
    {
      "name": "armLeft",
      "translation": [
        -0.13,
        0.473184,
        0
      ],
      "rotation": [
        0,
        0,
        0,
        1
      ],
      "scale": [
        0.8584,
        0.8584,
        0.8584
      ],
      "mesh": 0
    },
    {
      "name": "armRight",
      "translation": [
        0.130000114,
        0.473184,
        0
      ],
      "rotation": [
        0,
        0,
        0,
        1
      ],
      "scale": [
        1,
        1,
        1
      ],
      "mesh": 1
    },
    {
      "name": "body",
      "translation": [
        0,
        0.223184,
        0
      ],
      "rotation": [
        0,
        0,
        0,
        1
      ],
      "scale": [
        1,
        1,
        1
      ],
      "mesh": 2
    },
    {
      "name": "head",
      "translation": [
        0,
        0.48318398,
        0
      ],
      "rotation": [
        0,
        0,
        0,
        1
      ],
      "scale": [
        0.26,
        0.26,
        0.26
      ],
      "mesh": 3
    },
    {
      "name": "legLeft",
      "translation": [
        -0.13,
        0.223184,
        0
      ],
      "rotation": [
        0,
        0,
        0,
        1
      ],
      "scale": [
        1,
        1,
        1
      ],
      "mesh": 4
    },
    {
      "name": "legRight",
      "translation": [
        0.130000114,
        0.223184,
        0
      ],
      "rotation": [
        0,
        0,
        0,
        1
      ],
      "scale": [
        0.8584,
        0.8584,
        0.8584
      ],
      "mesh": 5
    }
  ],
  "scenes": [
    {
      "nodes": [
        1
      ]
    }
  ],
  "scene": 0
}